# xmcd
#
# Track frame offsets: 
#        150
#        18499
#        41077
#        55344
#        87742
#        100636
#        121334
#        138321
#        155276
#        182165
#
# Disc length: 2754 seconds
#
# Revision: 0
# Processed by: cddbd v1.5.1PL0 Copyright (c) Steve Scherf et al.
# Submitted via: ExactAudioCopy v0.95a5
#
DISCID=820ac00a
DTITLE=Feldspar - Paper Planes
DYEAR=2005
DGENRE=Folk
TTITLE0=Look around
TTITLE1=Girl of the other road
TTITLE2=The valley
TTITLE3=Nighttimes soliloquy
TTITLE4=Give life a miss
TTITLE5=Paper planes
TTITLE6=Bunch of lunatics
TTITLE7=Not through yet
TTITLE8=Just trying
TTITLE9=Seasons
EXTD=
EXTT0=
EXTT1=
EXTT2=
EXTT3=
EXTT4=
EXTT5=
EXTT6=
EXTT7=
EXTT8=
EXTT9=
PLAYORDER=
